<?xml version="1.0" encoding="UTF-8" standalone="no"?>
<!-- Creator: CorelDRAW X6 -->

<svg
   xmlns:dc="http://purl.org/dc/elements/1.1/"
   xmlns:cc="http://creativecommons.org/ns#"
   xmlns:rdf="http://www.w3.org/1999/02/22-rdf-syntax-ns#"
   xmlns:svg="http://www.w3.org/2000/svg"
   xmlns="http://www.w3.org/2000/svg"
   xmlns:sodipodi="http://sodipodi.sourceforge.net/DTD/sodipodi-0.dtd"
   xmlns:inkscape="http://www.inkscape.org/namespaces/inkscape"
   xml:space="preserve"
   width="273.69mm"
   height="63.869999mm"
   version="1.1"
   style="clip-rule:evenodd;fill-rule:evenodd;image-rendering:optimizeQuality;shape-rendering:geometricPrecision;text-rendering:geometricPrecision"
   viewBox="0 0 27369 6386.9999"
   id="svg3735"
   sodipodi:docname="logo.svg"
   inkscape:version="0.92.4 (5da689c313, 2019-01-14)"><metadata
   id="metadata3739"><rdf:RDF><cc:Work
       rdf:about=""><dc:format>image/svg+xml</dc:format><dc:type
         rdf:resource="http://purl.org/dc/dcmitype/StillImage" /></cc:Work></rdf:RDF></metadata><sodipodi:namedview
   pagecolor="#ffffff"
   bordercolor="#666666"
   borderopacity="1"
   objecttolerance="10"
   gridtolerance="10"
   guidetolerance="10"
   inkscape:pageopacity="0"
   inkscape:pageshadow="2"
   inkscape:window-width="640"
   inkscape:window-height="480"
   id="namedview3737"
   showgrid="false"
   inkscape:zoom="0.67531746"
   inkscape:cx="519.76063"
   inkscape:cy="120.68031"
   inkscape:window-x="0"
   inkscape:window-y="0"
   inkscape:window-maximized="1"
   inkscape:current-layer="svg3735" />
 <defs
   id="defs3729">
  <style
   type="text/css"
   id="style3727">
   <![CDATA[
    .fil0 {fill:#393285}
   ]]>
  </style>
 </defs>
 <g
   id="Layer_x0020_1"
   transform="translate(-1098,-7306)">
  <metadata
   id="CorelCorpID_0Corel-Layer" />
  <path
   class="fil0"
   d="m 24035,9169 h 1761 v 1765 h 914 V 9169 h 1757 v 4404 h -1757 v -1765 h -914 v 1765 H 24035 Z M 2831,8141 4614,9185 v 3158 L 2831,13542 Z M 1098,13628 H 2738 V 8086 h 3068 v 5542 H 7446 V 8086 7306 H 5806 2738 1098 v 780 z m 10922,-63 V 9161 H 10897 L 8761,11283 V 9161 h -799 v 4404 h 1178 l 1915,-2018 v 2018 h 964 z m 600,-4397 v 4404 h 757 v -2129 l 1437,2250 1550,-2250 v 2129 h 1708 V 9168 h -1333 l -1341,1970 -1287,-1970 h -1492 z m 8396,-153 c -1326,0 -2407,1047 -2407,2331 0,1284 1081,2331 2407,2331 1326,0 2407,-1047 2407,-2331 0,-1284 -1081,-2331 -2407,-2331 z m 5,632 v 0 c 380,0 692,311 692,692 v 2012 c 0,380 -311,692 -692,692 v 0 c -380,0 -692,-311 -692,-692 v -2012 c 0,-380 311,-692 692,-692 z"
   id="path3732"
   inkscape:connector-curvature="0"
   style="fill:#393285" />
 </g>
</svg>