<svg height="512pt" viewBox="0 0 512.00025 512" width="512pt" xmlns="http://www.w3.org/2000/svg"><path d="m15 512h482c4.460938 0 8.6875-1.984375 11.539062-5.414062 2.851563-3.433594 4.023438-7.953126 3.207032-12.339844l-90-482c-1.324219-7.097656-7.523438-12.246094-14.746094-12.246094-43.941406 0-265.121094 0-302 0-7.222656 0-13.417969 5.148438-14.746094 12.246094l-90 482c-.816406 4.386718.355469 8.90625 3.207032 12.339844 2.851562 3.429687 7.078124 5.414062 11.539062 5.414062zm463.941406-30h-30.523437l-84.398438-452h30.523438zm-237.941406-452v46c0 8.285156 6.714844 15 15 15s15-6.714844 15-15v-46h62.5l84.398438 452h-146.898438v-46c0-8.285156-6.714844-15-15-15s-15 6.714844-15 15v46h-146.898438l84.398438-452zm-123.539062 0h30.519531l-84.398438 452h-30.523437zm0 0"/><path d="m256 181c8.285156 0 15-6.714844 15-15v-30c0-8.285156-6.714844-15-15-15s-15 6.714844-15 15v30c0 8.285156 6.714844 15 15 15zm0 0"/><path d="m256 391c8.285156 0 15-6.714844 15-15v-30c0-8.285156-6.714844-15-15-15s-15 6.714844-15 15v30c0 8.285156 6.714844 15 15 15zm0 0"/><path d="m256 301c8.285156 0 15-6.714844 15-15v-60c0-8.285156-6.714844-15-15-15s-15 6.714844-15 15v60c0 8.285156 6.714844 15 15 15zm0 0"/></svg>