<svg height="511pt" viewBox="-25 0 511 511.98739" width="511pt" xmlns="http://www.w3.org/2000/svg"><path d="m275.046875 372.566406c-2.269531 0-4.445313-.898437-6.042969-2.5l-177.0625-177.449218c-3.320312-3.335938-3.320312-8.722657 0-12.058594l37.9375-38.027344c3.203125-3.207031 8.886719-3.207031 12.085938 0l177.0625 177.449219c3.320312 3.335937 3.320312 8.722656 0 12.058593l-37.941406 38.027344c-1.59375 1.601563-3.769532 2.5-6.039063 2.5zm-165.007813-185.984375 165.007813 165.367188 25.882813-25.945313-165.007813-165.363281zm0 0"/><path d="m325.632812 347.21875c-2.269531 0-4.445312-.894531-6.042968-2.5l-202.347656-202.800781c-3.320313-3.335938-3.320313-8.722657 0-12.058594l19.816406-19.855469c6.449218-6.46875 15.035156-10.027344 24.175781-10.027344 9.128906 0 17.714844 3.558594 24.164063 10.027344l166.167968 166.53125c13.269532 13.304688 13.269532 34.9375 0 48.242188l-19.890625 19.925781c-1.597656 1.613281-3.773437 2.515625-6.042969 2.515625zm-190.300781-211.324219 190.300781 190.707031 13.851563-13.875c6.636719-6.65625 6.636719-17.476562 0-24.125l-166.175781-166.539062c-6.453125-6.46875-17.726563-6.46875-24.175782 0zm0 0"/><path d="m186.519531 511.988281c-2.1875 0-4.378906-.835937-6.042969-2.5l-107.507812-107.738281c-21.632812-21.683594-31.863281-46.132812-29.890625-69.335938l-15.542969 12.84375c-3.386718 2.808594-8.351562 2.570313-11.476562-.546874-20.753906-20.796876-20.753906-54.632813 0-75.429688l82.203125-82.382812c1.605469-1.605469 3.773437-2.5 6.042969-2.5 2.269531 0 4.445312.894531 6.042968 2.5l164.417969 164.769531c3.316406 3.335937 3.316406 8.71875 0 12.054687l-82.207031 82.386719c-14.105469 14.128906-14.113282 37.121094-.042969 51.269531l.042969.042969c3.328125 3.335937 3.320312 8.738281-.007813 12.074219-1.671875 1.664062-3.855469 2.492187-6.03125 2.492187zm-126.324219-213.339843c1.988282 0 3.976563.691406 5.570313 2.070312 3.152344 2.714844 3.882813 7.316406 1.726563 10.875-6.855469 11.324219-18.859376 41.601562 17.5625 78.089844l79.890624 80.070312c.484376-12.980468 5.65625-25.8125 15.523438-35.703125l76.195312-76.359375-152.359374-152.683594-76.160157 76.332032c-12.265625 12.28125-13.878906 31.242187-4.859375 45.289062l31.472656-26.019531c1.578126-1.3125 3.507813-1.960937 5.4375-1.960937zm0 0"/><path d="m393.007812 102.375c-18.828124 0-34.136718-15.3125-34.136718-34.136719s15.308594-34.132812 34.136718-34.132812c18.824219 0 34.132813 15.308593 34.132813 34.132812s-15.308594 34.136719-34.132813 34.136719zm0-51.203125c-9.414062 0-17.070312 7.65625-17.070312 17.066406 0 9.414063 7.65625 17.066407 17.070312 17.066407 9.410157 0 17.066407-7.652344 17.066407-17.066407 0-9.410156-7.65625-17.066406-17.066407-17.066406zm0 0"/><path d="m85.796875 409.582031c-2.1875 0-4.371094-.835937-6.035156-2.5-3.335938-3.335937-3.335938-8.726562 0-12.066406l51.203125-51.199219c3.335937-3.335937 8.730468-3.335937 12.066406 0 3.335938 3.335938 3.335938 8.730469 0 12.066406l-51.203125 51.199219c-1.664063 1.675781-3.847656 2.5-6.03125 2.5zm0 0"/><path d="m188.199219 375.449219c-2.183594 0-4.371094-.835938-6.035157-2.5-3.335937-3.335938-3.335937-8.730469 0-12.066407l42.667969-42.667968c3.339844-3.335938 8.730469-3.335938 12.070313 0 3.335937 3.335937 3.335937 8.730468 0 12.066406l-42.671875 42.667969c-1.660157 1.671875-3.847657 2.5-6.03125 2.5zm0 0"/><path d="m331.496094 277.039062c-2.183594 0-4.371094-.835937-6.035156-2.5 0 0 0 0-.007813 0 0 0 0-.007812-.007813-.007812-1.664062-1.664062-138.003906-138.296875-138.003906-138.296875-3.039062-3.046875-3.339844-7.875-.691406-11.273437 2.644531-3.402344 7.398438-4.300782 11.09375-2.089844 44.535156 26.503906 82.144531-14.34375 113.058594-57.789063 7.820312-10.984375 35.824218-47.761719 68.195312-60.085937 15.316406-5.835938 31.34375-6.578125 45.117188-2.125 7.925781 2.398437 15.136718 6.769531 21.289062 12.921875 6.128906 6.144531 10.472656 13.335937 12.914063 21.390625 4.4375 13.800781 3.667969 29.828125-2.160157 45.160156-7.636718 20.097656-26.183593 41.824219-55.128906 64.585938-5.691406 4.46875-11.554687 8.644531-17.382812 12.789062-16.496094 11.726562-32.058594 22.792969-42.148438 39.886719-10.402344 17.621093-17.601562 49.257812-4.085937 62.851562l.027343.03125c3.328126 3.339844 3.316407 8.738281-.011718 12.066407-1.664063 1.648437-3.847656 2.484374-6.03125 2.484374zm-107.695313-128.542968 89.40625 89.605468c.445313-17.058593 6.453125-34.929687 13.6875-47.183593 11.929688-20.214844 29.742188-32.878907 46.960938-45.117188 5.609375-3.984375 11.257812-7.996093 16.71875-12.296875 26.105469-20.523437 43.300781-40.3125 49.726562-57.226562 4.460938-11.742188 5.117188-23.792969 1.839844-33.921875-.015625-.050781-.03125-.109375-.050781-.160157-1.636719-5.445312-4.480469-10.136718-8.675782-14.34375-4.191406-4.210937-8.875-7.050781-14.3125-8.699218-10.25-3.328125-22.246093-2.660156-33.9375 1.785156-22.164062 8.441406-45.707031 33.441406-60.359374 54.027344-17.382813 24.4375-53.660157 75.4375-101.003907 73.53125zm0 0"/></svg>