<?xml version="1.0"?>
<svg xmlns="http://www.w3.org/2000/svg" height="512px" viewBox="-42 0 511 511.98933" width="512px" class=""><g><script xmlns="" id="SCR_UID_ID_POP" class="active-path" style="fill:#000000">window.webArchive=window.webArchive||{};window.webArchive.active=true;</script><path d="m416.730469 74.039062-197.335938-73.046874c-3.582031-1.324219-7.550781-1.324219-11.113281 0l-197.332031 73.046874c-6.292969 2.300782-10.453125 8.296876-10.453125 14.996094v170.6875c0 194.199219 207.144531 251.179688 209.257812 251.734375 1.320313.339844 2.707032.53125 4.074219.53125 1.363281 0 2.75-.191406 4.074219-.53125 2.113281-.554687 209.257812-57.558593 209.257812-251.734375v-170.6875c0-6.699218-4.160156-12.695312-10.429687-14.996094zm-202.902344 320.617188c-76.457031 0-138.667969-62.207031-138.667969-138.667969 0-76.457031 62.210938-138.664062 138.667969-138.664062s138.667969 62.207031 138.667969 138.664062c0 76.460938-62.210938 138.667969-138.667969 138.667969zm0 0" data-original="#000000" class="active-path" fill="#ff7e68"/><path d="m251.160156 314.65625c-5.460937 0-10.921875-2.089844-15.082031-6.25l-37.332031-37.335938c-4.011719-3.988281-6.25-9.40625-6.25-15.082031v-58.664062c0-11.800781 9.554687-21.335938 21.332031-21.335938s21.332031 9.535157 21.332031 21.335938v49.832031l31.082032 31.082031c8.34375 8.34375 8.34375 21.824219 0 30.167969-4.15625 4.160156-9.621094 6.25-15.082032 6.25zm0 0" data-original="#000000" class="active-path" fill="#ff7e68"/></g> </svg>
